<svg xmlns="http://www.w3.org/2000/svg" xmlns:xlink="http://www.w3.org/1999/xlink" width="24" height="24" viewBox="0 0 24 24">
    <defs>
        <path id="a" d="M23.922 8.765a.429.429 0 0 0-.346-.29l-7.753-1.12L12.356.373a.428.428 0 0 0-.768 0L8.12 7.355.367 8.475a.424.424 0 1 0-.238.726l5.61 5.435-1.324 7.674a.427.427 0 0 0 .621.449l6.936-3.623 6.934 3.623a.431.431 0 0 0 .452-.032.424.424 0 0 0 .17-.417l-1.324-7.673 5.61-5.436a.425.425 0 0 0 .108-.436z"/>
    </defs>
    <g fill="none" fill-rule="evenodd" transform="translate(0 .5)">
        <mask id="b" fill="#fff">
            <use xlink:href="#a"/>
        </mask>
        <use fill="#000" fill-rule="nonzero" xlink:href="#a"/>
        <g fill="#FFF" mask="url(#b)">
            <path d="M0-.5h24v24H0z"/>
        </g>
    </g>
</svg>
